<svg width="800" height="300" xmlns="http://www.w3.org/2000/svg"><g fill="none" fill-rule="evenodd"><path fill="#000" d="M0 0h800v300H0z"/><path d="M323.723 122.625c-2.834 3.267-7.262 5.916-11.778 5.562-.532-4.502 1.594-9.182 4.162-12.183 2.923-3.444 7.793-5.827 11.779-6.004.442 4.591-1.417 9.182-4.163 12.625zm4.074 6.357c-6.465-.353-12.044 3.708-15.144 3.708-3.1 0-7.882-3.531-13.018-3.443-6.642.088-12.93 3.885-16.296 9.888-6.996 12.007-1.86 29.842 4.96 39.553 3.365 4.944 7.35 10.242 12.576 10.065 4.959-.176 6.907-3.178 12.93-3.178 6.022 0 7.793 3.178 13.018 3.09 5.402-.088 8.856-4.856 12.133-9.712 3.808-5.474 5.313-10.86 5.402-11.124-.177-.088-10.539-4.061-10.627-15.98-.089-9.977 8.147-14.744 8.59-15.01-4.694-6.886-11.956-7.592-14.524-7.857zm37.55-13.508v72.573h11.247v-24.72h15.675c14.259 0 24.355-9.8 24.355-23.927 0-14.126-9.83-23.838-24-23.838l-27.277-.088zm11.247 9.535h13.019c9.83 0 15.41 5.209 15.41 14.391s-5.58 14.391-15.499 14.391h-12.93v-28.782zm60.664 63.656c7.085 0 13.727-3.62 16.65-9.27h.265v8.74h10.45v-36.198c0-10.506-8.413-17.216-21.343-17.216-12.044 0-20.9 6.886-21.166 16.245H432.3c.797-4.503 4.96-7.416 10.716-7.416 6.908 0 10.804 3.178 10.804 9.093v3.973l-14.081.795c-13.107.794-20.192 6.18-20.192 15.45-.177 9.535 7.174 15.804 17.712 15.804zm3.011-8.652c-6.022 0-9.83-2.914-9.83-7.328 0-4.591 3.72-7.24 10.716-7.593l12.576-.795v4.062c0 6.886-5.757 11.654-13.462 11.654zm38.347 27.81c10.982 0 16.207-4.15 20.723-16.863l19.838-55.533h-11.513l-13.284 42.908h-.266l-13.284-42.908h-11.778l19.129 52.885-1.063 3.178c-1.771 5.474-4.517 7.505-9.564 7.505-.886 0-2.657-.089-3.277-.177v8.74c.708.177 3.454.265 4.34.265z" fill="#FFF" fill-rule="nonzero"/></g></svg>