<?xml version="1.0" encoding="UTF-8" standalone="no"?>
<!-- Created with Inkscape (http://www.inkscape.org/) -->
<svg
   xmlns:svg="http://www.w3.org/2000/svg"
   xmlns="http://www.w3.org/2000/svg"
   version="1.0"
   width="3000"
   height="2400"
   id="svg2">
  <defs
     id="defs4" />
  <g
     id="layer1" />
  <path
     d="M 0,200 C -1.3526628e-014,89.54305 89.54305,2.0289942e-014 200,0 L 2800,0 C 2910.4569,6.7633141e-015 3000,89.54305 3000,200 L 3000,2200 C 3000,2310.4569 2910.4569,2400 2800,2400 L 200,2400 C 89.54305,2400 1.3526628e-014,2310.4569 0,2200 L 0,200 z "
     style="fill:#ffffff;fill-opacity:1;fill-rule:evenodd;stroke:#000000;stroke-width:1;stroke-linecap:butt;stroke-linejoin:miter;stroke-opacity:1"
     id="path1407" />
  <path
     d="M 50,200 C 50,117.15729 117.15729,50 200,50 L 2800,50 C 2882.8427,50 2950,117.15729 2950,200 L 2950,2200 C 2950,2282.8427 2882.8427,2350 2800,2350 L 200,2350 C 117.15729,2350 50,2282.8427 50,2200 L 50,200 z "
     style="fill:#000000;fill-opacity:1;fill-rule:evenodd;stroke:#000000;stroke-width:1px;stroke-linecap:butt;stroke-linejoin:miter;stroke-opacity:1"
     id="path1341" />
  <path
     d="M 200,100 L 2800,100 C 2855.2285,100 2900,144.77153 2900,200 L 2900,725 L 100,725 L 100,200 C 100,144.77153 144.77153,100 200,100 z "
     style="fill:#ffffff;fill-opacity:1;fill-rule:evenodd;stroke:#000000;stroke-width:1px;stroke-linecap:butt;stroke-linejoin:miter;stroke-opacity:1"
     id="path10350" />
  <path
     d="M 100,850 L 2900,850 L 2900,2200 C 2900,2255.2285 2855.2285,2300 2800,2300 L 200,2300 C 144.77153,2300 100,2255.2285 100,2200 L 100,850 z "
     style="fill:#ffffff;fill-opacity:1;fill-rule:evenodd;stroke:#000000;stroke-width:1px;stroke-linecap:butt;stroke-linejoin:miter;stroke-opacity:1"
     id="path1343" />
  <path
     d="M 236.0625,2175 C 238.46243,2134.2 240.86242,2098.8001 243.2625,2068.8 C 246.86242,2038.8001 250.46241,2011.8002 254.0625,1987.8 C 258.86241,1963.8002 264.2624,1941.0002 270.2625,1919.4 C 277.46239,1896.6003 285.86238,1872.0003 295.4625,1845.6 C 344.66232,1719.6005 409.46225,1619.4006 489.8625,1545 C 497.06217,1539.0006 504.26216,1533.0006 511.4625,1527 C 519.86214,1519.8007 529.46213,1512.0007 540.2625,1503.6 C 552.26211,1495.2007 566.0621,1485.0007 581.6625,1473 C 598.46207,1461.0007 618.86205,1446.6007 642.8625,1429.8 C 682.46198,1402.2008 708.86196,1378.8008 722.0625,1359.6 C 736.46193,1340.4008 743.66192,1315.8009 743.6625,1285.8 C 743.66192,1263.0009 738.86193,1241.4009 729.2625,1221 C 720.86194,1200.601 708.86196,1182.601 693.2625,1167 C 678.86199,1151.401 660.862,1139.401 639.2625,1131 C 618.86205,1121.4011 597.26207,1116.6011 574.4625,1116.6 C 550.46211,1116.6011 528.26214,1121.4011 507.8625,1131 C 487.46218,1139.401 469.46219,1151.401 453.8625,1167 C 439.46222,1182.601 427.46224,1200.601 417.8625,1221 C 409.46225,1241.4009 405.26226,1263.0009 405.2625,1285.8 L 236.0625,1285.8 C 237.26243,1239.0009 246.26242,1195.201 263.0625,1154.4 C 281.06238,1112.4011 305.06236,1076.4011 335.0625,1046.4 C 365.0623,1015.2012 400.46226,991.20118 441.2625,974.4 C 482.06218,956.40122 526.46214,947.40123 574.4625,947.4 C 621.26204,947.40123 664.462,956.40122 704.0625,974.4 C 744.86192,992.40118 780.26188,1017.0012 810.2625,1048.2 C 841.46182,1078.2011 865.4618,1113.6011 882.2625,1154.4 C 900.26176,1195.201 909.26175,1239.0009 909.2625,1285.8 C 909.26175,1381.8008 875.06179,1461.0007 806.6625,1523.4 C 800.66186,1528.2006 794.06187,1533.0006 786.8625,1537.8 C 780.86188,1541.4006 774.86189,1546.2006 768.8625,1552.2 L 727.4625,1582.8 L 684.2625,1611.6 L 637.4625,1645.8 C 618.26205,1660.2005 599.06206,1677.6005 579.8625,1698 C 561.8621,1717.2005 543.86212,1738.8004 525.8625,1762.8 C 509.06216,1785.6004 494.06217,1810.2004 480.8625,1836.6 C 467.6622,1861.8003 456.86221,1887.0003 448.4625,1912.2 C 441.26222,1927.8002 435.86223,1942.2002 432.2625,1955.4 C 429.86223,1967.4002 426.26224,1984.2002 421.4625,2005.8 L 909.2625,2005.8 L 909.2625,2175 L 236.0625,2175 M 1796.8875,1570.2 C 1796.8867,1662.6005 1791.4867,1741.2004 1780.6875,1806 C 1771.0867,1870.8003 1753.6867,1932.0002 1728.4875,1989.6 C 1698.4868,2061.6001 1660.6868,2114.4001 1615.0875,2148 C 1570.6869,2180.4 1514.287,2196.6 1445.8875,2196.6 C 1373.8871,2196.6 1315.0872,2180.4 1269.4875,2148 C 1225.0873,2114.4001 1187.8873,2061.6001 1157.8875,1989.6 C 1132.6873,1930.8002 1114.6874,1869.6003 1103.8875,1806 C 1094.2874,1741.2004 1089.4874,1662.6005 1089.4875,1570.2 C 1089.4874,1479.0007 1094.2874,1401.0008 1103.8875,1336.2 C 1114.6874,1270.2009 1132.6873,1208.401 1157.8875,1150.8 C 1189.0873,1078.8011 1226.8873,1027.2011 1271.2875,996 C 1316.8872,963.60121 1375.0871,947.40123 1445.8875,947.4 C 1515.487,947.40123 1572.4869,963.60121 1616.8875,996 C 1661.2868,1027.2011 1698.4868,1080.0011 1728.4875,1154.4 C 1740.4867,1184.401 1750.6867,1214.401 1759.0875,1244.4 C 1768.6867,1274.4009 1775.8867,1306.2009 1780.6875,1339.8 C 1786.6867,1372.2008 1790.8867,1407.6008 1793.2875,1446 C 1795.6867,1483.2007 1796.8867,1524.6007 1796.8875,1570.2 M 1631.2875,1570.2 C 1631.2868,1536.6006 1630.0868,1506.0007 1627.6875,1478.4 C 1626.4869,1450.8007 1624.0869,1425.6007 1620.4875,1402.8 C 1618.0869,1378.8008 1614.4869,1356.0008 1609.6875,1334.4 C 1604.8869,1312.8009 1599.4869,1291.2009 1593.4875,1269.6 C 1577.8869,1215.601 1558.0869,1176.601 1534.0875,1152.6 C 1511.287,1128.601 1481.887,1116.6011 1445.8875,1116.6 C 1371.4871,1116.6011 1320.4872,1166.401 1292.8875,1266 C 1278.4872,1311.6009 1268.2872,1357.8008 1262.2875,1404.6 C 1257.4872,1450.2007 1255.0872,1506.6007 1255.0875,1573.8 C 1255.0872,1606.2006 1255.6872,1636.2005 1256.8875,1663.8 C 1259.2872,1690.2005 1261.6872,1715.4005 1264.0875,1739.4 C 1267.6872,1762.2004 1271.8872,1785.0004 1276.6875,1807.8 C 1281.4872,1830.6003 1286.8872,1854.0003 1292.8875,1878 C 1320.4872,1977.6002 1371.4871,2027.4001 1445.8875,2027.4 C 1481.887,2027.4001 1511.287,2015.4002 1534.0875,1991.4 C 1558.0869,1967.4002 1577.8869,1929.6002 1593.4875,1878 C 1600.6869,1854.0003 1606.6869,1831.2003 1611.4875,1809.6 C 1616.2869,1786.8004 1619.8869,1763.4004 1622.2875,1739.4 C 1625.8869,1715.4005 1628.2869,1690.2005 1629.4875,1663.8 C 1630.6868,1636.2005 1631.2868,1605.0006 1631.2875,1570.2 M 2725.0125,1570.2 C 2725.0117,1662.6005 2719.6117,1741.2004 2708.8125,1806 C 2699.2117,1870.8003 2681.8117,1932.0002 2656.6125,1989.6 C 2626.6118,2061.6001 2588.8118,2114.4001 2543.2125,2148 C 2498.8119,2180.4 2442.412,2196.6 2374.0125,2196.6 C 2302.0121,2196.6 2243.2122,2180.4 2197.6125,2148 C 2153.2123,2114.4001 2116.0123,2061.6001 2086.0125,1989.6 C 2060.8123,1930.8002 2042.8124,1869.6003 2032.0125,1806 C 2022.4124,1741.2004 2017.6124,1662.6005 2017.6125,1570.2 C 2017.6124,1479.0007 2022.4124,1401.0008 2032.0125,1336.2 C 2042.8124,1270.2009 2060.8123,1208.401 2086.0125,1150.8 C 2117.2123,1078.8011 2155.0123,1027.2011 2199.4125,996 C 2245.0122,963.60121 2303.2121,947.40123 2374.0125,947.4 C 2443.612,947.40123 2500.6119,963.60121 2545.0125,996 C 2589.4118,1027.2011 2626.6118,1080.0011 2656.6125,1154.4 C 2668.6117,1184.401 2678.8117,1214.401 2687.2125,1244.4 C 2696.8117,1274.4009 2704.0117,1306.2009 2708.8125,1339.8 C 2714.8117,1372.2008 2719.0117,1407.6008 2721.4125,1446 C 2723.8117,1483.2007 2725.0117,1524.6007 2725.0125,1570.2 M 2559.4125,1570.2 C 2559.4118,1536.6006 2558.2118,1506.0007 2555.8125,1478.4 C 2554.6119,1450.8007 2552.2119,1425.6007 2548.6125,1402.8 C 2546.2119,1378.8008 2542.6119,1356.0008 2537.8125,1334.4 C 2533.0119,1312.8009 2527.6119,1291.2009 2521.6125,1269.6 C 2506.0119,1215.601 2486.2119,1176.601 2462.2125,1152.6 C 2439.412,1128.601 2410.012,1116.6011 2374.0125,1116.6 C 2299.6121,1116.6011 2248.6122,1166.401 2221.0125,1266 C 2206.6122,1311.6009 2196.4122,1357.8008 2190.4125,1404.6 C 2185.6122,1450.2007 2183.2122,1506.6007 2183.2125,1573.8 C 2183.2122,1606.2006 2183.8122,1636.2005 2185.0125,1663.8 C 2187.4122,1690.2005 2189.8122,1715.4005 2192.2125,1739.4 C 2195.8122,1762.2004 2200.0122,1785.0004 2204.8125,1807.8 C 2209.6122,1830.6003 2215.0122,1854.0003 2221.0125,1878 C 2248.6122,1977.6002 2299.6121,2027.4001 2374.0125,2027.4 C 2410.012,2027.4001 2439.412,2015.4002 2462.2125,1991.4 C 2486.2119,1967.4002 2506.0119,1929.6002 2521.6125,1878 C 2528.8119,1854.0003 2534.8119,1831.2003 2539.6125,1809.6 C 2544.4119,1786.8004 2548.0119,1763.4004 2550.4125,1739.4 C 2554.0119,1715.4005 2556.4119,1690.2005 2557.6125,1663.8 C 2558.8118,1636.2005 2559.4118,1605.0006 2559.4125,1570.2"
     style="font-size:1800px;font-style:normal;font-variant:normal;font-weight:normal;font-stretch:normal;text-align:center;line-height:100%;writing-mode:lr-tb;text-anchor:middle;fill:#000000;fill-opacity:1;stroke:none;stroke-width:1px;stroke-linecap:butt;stroke-linejoin:miter;stroke-opacity:1;font-family:Roadgeek 2005 Series C"
     id="text2908" />
  <path
     d="M 633.35625,562.5 L 633.35625,387.9 L 563.60625,562.5 L 493.85625,387.9 L 493.85625,562.5 L 446.15625,562.5 L 446.15625,261 L 493.85625,261 L 563.60625,430.2 L 633.35625,261 L 681.05625,261 L 681.05625,562.5 L 633.35625,562.5 M 930.64453,562.5 L 900.94453,477.9 L 806.89453,477.9 L 777.19453,562.5 L 726.34453,562.5 L 830.29453,261 L 877.54453,261 L 981.49453,562.5 L 930.64453,562.5 M 854.59453,344.7 L 823.54453,429.3 L 883.84453,429.3 L 854.59453,344.7 M 1180.5633,562.5 L 1131.9633,431.1 L 1074.8133,431.1 L 1074.8133,562.5 L 1027.1133,562.5 L 1027.1133,261 L 1126.5633,261 C 1138.2631,261.0003 1148.3131,261.7503 1156.7133,263.25 C 1165.1131,264.4503 1173.0631,266.8503 1180.5633,270.45 C 1187.1631,273.75029 1193.1631,278.10028 1198.5633,283.5 C 1204.2631,288.60027 1209.0631,294.60027 1212.9633,301.5 C 1217.1631,308.10025 1220.3131,315.30025 1222.4133,323.1 C 1224.813,330.60023 1226.013,338.10022 1226.0133,345.6 C 1226.013,353.70021 1224.813,361.6502 1222.4133,369.45 C 1220.3131,376.95019 1217.1631,384.15018 1212.9633,391.05 C 1209.0631,397.65016 1204.1131,403.65016 1198.1133,409.05 C 1192.4131,414.45015 1186.1131,418.65014 1179.2133,421.65 L 1232.3133,562.5 L 1180.5633,562.5 M 1178.3133,345.6 C 1178.3131,339.30022 1176.6631,333.30023 1173.3633,327.6 C 1170.0631,321.90024 1165.4131,317.40025 1159.4133,314.1 C 1155.5131,312.00025 1151.9131,310.65025 1148.6133,310.05 C 1145.3131,309.15025 1139.7631,308.70025 1131.9633,308.7 L 1074.8133,308.7 L 1074.8133,382.5 L 1131.9633,382.5 C 1139.4631,382.50018 1144.8631,382.20018 1148.1633,381.6 C 1151.7631,381.00018 1155.5131,379.65018 1159.4133,377.55 C 1165.4131,374.25019 1170.0631,369.75019 1173.3633,364.05 C 1176.6631,358.0502 1178.3131,351.90021 1178.3133,345.6 M 1415.175,431.1 L 1415.175,562.5 L 1367.475,562.5 L 1367.475,431.1 L 1261.725,261 L 1318.875,261 L 1390.875,377.55 L 1463.775,261 L 1520.025,261 L 1415.175,431.1 M 1572.0352,562.5 L 1572.0352,261 L 1619.7352,261 L 1619.7352,517.95 L 1759.2352,517.95 L 1759.2352,562.5 L 1572.0352,562.5 M 1981.8164,562.5 L 1952.1164,477.9 L 1858.0664,477.9 L 1828.3664,562.5 L 1777.5164,562.5 L 1881.4664,261 L 1928.7164,261 L 2032.6664,562.5 L 1981.8164,562.5 M 1905.7664,344.7 L 1874.7164,429.3 L 1935.0164,429.3 L 1905.7664,344.7 M 2241.1852,562.5 L 2125.9852,358.2 L 2125.9852,562.5 L 2078.2852,562.5 L 2078.2852,261 L 2125.9852,261 L 2235.7852,453.6 L 2235.7852,261 L 2283.4852,261 L 2283.4852,562.5 L 2241.1852,562.5 M 2560.3406,411.3 C 2560.3404,441.60012 2555.6904,468.30009 2546.3906,491.4 C 2537.3904,514.20005 2524.3404,532.20003 2507.2406,545.4 C 2501.5404,550.80001 2494.7904,554.85001 2486.9906,557.55 C 2479.4905,560.25 2471.8405,561.9 2464.0406,562.5 L 2446.9406,562.5 L 2355.1406,562.5 L 2355.1406,261 L 2452.3406,261 C 2459.8405,261.0003 2466.2905,261.3003 2471.6906,261.9 C 2477.3905,262.2003 2482.4905,262.9503 2486.9906,264.15 C 2491.4905,265.3503 2495.5404,267.0003 2499.1406,269.1 C 2502.7404,271.20029 2506.6404,273.75029 2510.8406,276.75 C 2526.7404,290.55027 2538.8904,309.00025 2547.2906,332.1 C 2555.9904,354.90021 2560.3404,381.30018 2560.3406,411.3 M 2511.7406,411.3 C 2511.7404,390.90017 2509.4904,372.75019 2504.9906,356.85 C 2500.7904,340.95022 2494.9404,329.10023 2487.4406,321.3 C 2483.5405,317.70024 2479.0405,314.70025 2473.9406,312.3 C 2468.8405,309.90025 2463.1405,308.70025 2456.8406,308.7 L 2402.8406,308.7 L 2402.8406,513.9 L 2450.5406,513.9 C 2458.3405,513.90005 2464.7905,513.00005 2469.8906,511.2 C 2475.2905,509.40005 2480.0905,506.40006 2484.2906,502.2 C 2493.2905,493.20007 2500.0404,480.90008 2504.5406,465.3 C 2509.3404,449.40011 2511.7404,431.40013 2511.7406,411.3"
     style="font-size:450px;font-style:normal;font-variant:normal;font-weight:normal;font-stretch:normal;text-align:center;line-height:125%;writing-mode:lr-tb;text-anchor:middle;fill:#000000;fill-opacity:1;stroke:none;stroke-width:1px;stroke-linecap:butt;stroke-linejoin:miter;stroke-opacity:1;font-family:Roadgeek 2005 Series D"
     id="text2947" />
</svg>
